<?xml version="1.0" encoding="UTF-8"?>
<svg id="svg1" xmlns="http://www.w3.org/2000/svg" version="1.1" xmlns:inkscape="http://www.inkscape.org/namespaces/inkscape" xmlns:sodipodi="http://sodipodi.sourceforge.net/DTD/sodipodi-0.dtd" xmlns:svg="http://www.w3.org/2000/svg" viewBox="0 0 432 99.5">
  <!-- Generator: Adobe Illustrator 29.3.1, SVG Export Plug-In . SVG Version: 2.1.0 Build 151)  -->
  <defs>
    <style>
      .st0 {
        fill: #f8c300;
      }

      .st1 {
        fill: #3c5ad9;
      }
    </style>
  </defs>
  <sodipodi:namedview id="namedview1" bordercolor="#000000" borderopacity="0.25" inkscape:current-layer="g1" inkscape:cx="216.01334" inkscape:cy="49.67441" inkscape:deskcolor="#d1d1d1" inkscape:pagecheckerboard="0" inkscape:pageopacity="0.0" inkscape:showpageshadow="2" inkscape:window-height="1403" inkscape:window-maximized="1" inkscape:window-width="2560" inkscape:window-x="0" inkscape:window-y="0" inkscape:zoom="4.6200851" pagecolor="#ffffff" showgrid="false">
    <inkscape:page id="page1" x="0" y="0" width="432.02667" height="99.480003" bleed="0" inkscape:label="1" margin="0"/>
  </sodipodi:namedview>
  <g>
    <g>
      <path class="st1" d="M94.1,32.5c1.5,0,2.8.2,4,.5,1.1.3,2.1.7,2.9,1.2.8.5,1.5,1,2.1,1.5.6.5,1,1,1.4,1.5v-16.5c0-.6.2-1.1.6-1.5.4-.4.9-.6,1.5-.6h9.8c.6,0,1.1.2,1.5.6.4.4.6.9.6,1.5v50.9c0,.6-.2,1.1-.6,1.5s-.9.6-1.5.6h-9.4c-.6,0-1.1-.2-1.5-.6s-.6-.9-.6-1.5v-1.8c-.5.6-1,1.1-1.5,1.7-.5.5-1.2,1-2,1.5-.8.4-1.8.8-2.9,1.1-1.2.3-2.6.4-4.3.4s-4.5-.3-6.6-1c-2.1-.7-3.9-1.8-5.4-3.3-1.6-1.5-2.8-3.3-3.8-5.5-1-2.2-1.5-4.9-1.6-7.9,0-.8,0-1.8,0-3.1s0-2.4,0-3.1c.1-3.1.6-5.7,1.6-7.9,1-2.2,2.2-4.1,3.8-5.5,1.6-1.5,3.4-2.6,5.4-3.3,2.1-.7,4.3-1.1,6.6-1.1ZM90.6,51.3c-.2,1.4-.2,2.9,0,4.3.2,1.8.7,3.4,1.8,4.7,1,1.3,2.8,2,5.2,2s2.1-.2,2.9-.5c.8-.4,1.5-.8,2.1-1.4.5-.6,1-1.3,1.3-2,.3-.7.5-1.5.6-2.3.1-.8.2-1.7.2-2.7s0-1.9-.2-2.7c-.1-.8-.3-1.5-.6-2.3-.3-.7-.7-1.4-1.3-2-.5-.6-1.2-1.1-2.1-1.4-.8-.4-1.8-.5-2.9-.5-2.4,0-4.2.7-5.2,2-1,1.3-1.6,2.9-1.8,4.7Z"/>
      <path class="st1" d="M127,35.4c0-.6.2-1.1.6-1.5.4-.4.9-.6,1.5-.6h9.8c.6,0,1.1.2,1.5.6.4.4.6.9.6,1.5v19.6c0,2.2.5,4,1.5,5.4s2.6,2,4.9,2,3.9-.7,4.9-2c1-1.3,1.4-3.1,1.4-5.4v-19.6c0-.6.2-1.1.6-1.5.4-.4.9-.6,1.5-.6h9.8c.6,0,1.1.2,1.5.6.4.4.6.9.6,1.5v36.2c0,.6-.2,1.1-.6,1.5s-.9.6-1.5.6h-9c-.6,0-1.1-.2-1.5-.6s-.6-.9-.6-1.5v-1.8c-.4.6-.9,1.1-1.5,1.7-.6.5-1.3,1-2.2,1.5-.9.4-1.9.8-3.1,1.1-1.2.3-2.5.4-4.2.4-5,0-9-1.4-12-4.3-3-2.8-4.5-7.3-4.5-13.4v-21.3Z"/>
      <path class="st1" d="M189,50.7c-.1.8-.2,1.7-.2,2.7s0,1.9.2,2.7c.2,1.9.9,3.4,2.1,4.5,1.2,1.1,2.9,1.7,5,1.7s3-.2,3.9-.7c.9-.5,1.6-1.2,2.2-2.1.3-.4.6-.8.9-1.1.3-.3.8-.5,1.4-.5h10.2c.6,0,1.1.2,1.5.6.4.4.6.9.6,1.5,0,.8-.4,2-1,3.6-.6,1.6-1.7,3.2-3.3,4.8-1.6,1.6-3.6,2.9-6.3,4.1-2.6,1.2-6,1.7-10.1,1.7s-5.6-.4-8.1-1.2c-2.5-.8-4.7-2-6.6-3.6-1.9-1.6-3.4-3.4-4.5-5.6-1.1-2.2-1.7-4.7-1.8-7.4,0-.8,0-1.8,0-3.1s0-2.3,0-3.1c.1-2.7.7-5.2,1.8-7.4,1.1-2.2,2.6-4.1,4.5-5.6,1.9-1.6,4.1-2.7,6.6-3.6,2.5-.8,5.2-1.2,8.1-1.2s7.4.6,10.1,1.7c2.6,1.2,4.7,2.5,6.3,4.1s2.6,3.2,3.3,4.8c.6,1.6,1,2.8,1,3.6,0,.6-.1,1.1-.6,1.5-.4.4-.9.6-1.5.6h-10.2c-.6,0-1-.2-1.4-.5-.3-.3-.6-.7-.9-1.1-.6-.9-1.3-1.6-2.2-2.1-.9-.5-2.2-.7-3.9-.7s-3.7.6-5,1.7c-1.2,1.1-1.9,2.6-2.1,4.5Z"/>
      <path class="st1" d="M220.7,62.1c0-3.4,1.3-6.2,3.9-8.5,2.6-2.2,6.9-3.9,12.8-4.9l9.1-1.6c0-1.2-.3-2.3-1-3.1-.7-.8-1.8-1.2-3.5-1.2s-2.1.2-2.8.5c-.6.3-1.1.6-1.4.9-.5.4-.9.7-1.3.8-.4.1-.9.2-1.5.2h-9.9c-.5,0-.9-.2-1.3-.5-.3-.3-.5-.7-.4-1.2.1-1.2.6-2.4,1.6-3.7.9-1.3,2.2-2.5,3.8-3.6,1.6-1.1,3.6-2,5.8-2.7,2.3-.7,4.7-1.1,7.3-1.1s5.9.4,8.2,1.2c2.3.8,4.3,1.9,5.8,3.2,1.5,1.4,2.7,3,3.4,4.9.7,1.9,1.1,4,1.1,6.2v23.5c0,.6-.2,1.1-.6,1.5s-.9.6-1.5.6h-9.8c-.6,0-1.1-.2-1.5-.6-.4-.4-.6-.9-.6-1.5v-2.2c-1.2,1.6-2.8,2.8-4.6,3.7-1.8.9-4.3,1.4-7.3,1.4s-4.2-.3-5.9-.9c-1.7-.6-3.2-1.5-4.3-2.6-1.2-1.1-2.1-2.4-2.7-3.9-.6-1.5-.9-3.1-.9-4.9ZM238.4,63.9c1.1,0,2.2-.2,3.2-.6,1-.4,1.8-.9,2.6-1.6.7-.7,1.3-1.5,1.7-2.4s.6-1.9.6-2.9l-7.1,1.1c-1.4.3-2.5.7-3.4,1.3s-1.3,1.4-1.3,2.4.3,1.7,1,2.1,1.6.6,2.8.6Z"/>
      <path class="st1" d="M281.4,50.7c-.1.8-.2,1.7-.2,2.7s0,1.9.2,2.7c.2,1.9.9,3.4,2.1,4.5,1.2,1.1,2.9,1.7,5,1.7s3-.2,3.9-.7c.9-.5,1.6-1.2,2.2-2.1.3-.4.6-.8.9-1.1.3-.3.8-.5,1.4-.5h10.2c.6,0,1.1.2,1.5.6.4.4.6.9.6,1.5,0,.8-.4,2-1,3.6-.6,1.6-1.7,3.2-3.3,4.8-1.6,1.6-3.6,2.9-6.3,4.1-2.6,1.2-6,1.7-10.1,1.7s-5.6-.4-8.1-1.2c-2.5-.8-4.7-2-6.6-3.6-1.9-1.6-3.4-3.4-4.5-5.6-1.1-2.2-1.7-4.7-1.8-7.4,0-.8,0-1.8,0-3.1s0-2.3,0-3.1c.1-2.7.7-5.2,1.8-7.4,1.1-2.2,2.6-4.1,4.5-5.6,1.9-1.6,4.1-2.7,6.6-3.6,2.5-.8,5.2-1.2,8.1-1.2s7.4.6,10.1,1.7c2.6,1.2,4.7,2.5,6.3,4.1s2.6,3.2,3.3,4.8c.6,1.6,1,2.8,1,3.6,0,.6-.1,1.1-.6,1.5-.4.4-.9.6-1.5.6h-10.2c-.6,0-1-.2-1.4-.5-.3-.3-.6-.7-.9-1.1-.6-.9-1.3-1.6-2.2-2.1-.9-.5-2.2-.7-3.9-.7s-3.7.6-5,1.7c-1.2,1.1-1.9,2.6-2.1,4.5Z"/>
      <path class="st1" d="M329.8,26.9c0,.6-.2,1.1-.6,1.5s-.9.6-1.5.6h-9.8c-.6,0-1.1-.2-1.5-.6-.4-.4-.6-.9-.6-1.5v-7.8c0-.6.2-1.1.6-1.5s.9-.6,1.5-.6h9.8c.6,0,1.1.2,1.5.6.4.4.6.9.6,1.5v7.8ZM329.8,71.5c0,.6-.2,1.1-.6,1.5-.4.4-.9.6-1.5.6h-9.8c-.6,0-1.1-.2-1.5-.6-.4-.4-.6-.9-.6-1.5v-36.2c0-.6.2-1.1.6-1.5s.9-.6,1.5-.6h9.8c.6,0,1.1.2,1.5.6.4.4.6.9.6,1.5v36.2Z"/>
      <path class="st1" d="M379.3,50.5c0,.8,0,1.8,0,3s0,2.2,0,3c-.1,2.5-.7,4.8-1.7,7-1,2.2-2.5,4.1-4.3,5.7-1.8,1.6-4,2.9-6.6,3.8-2.6.9-5.4,1.4-8.6,1.4s-6-.5-8.6-1.4c-2.6-.9-4.7-2.2-6.6-3.8-1.8-1.6-3.2-3.5-4.3-5.7-1-2.2-1.6-4.5-1.7-7,0-.8,0-1.8,0-3s0-2.2,0-3c0-2.5.6-4.8,1.6-7s2.5-4.1,4.3-5.7c1.8-1.6,4-2.9,6.6-3.9,2.6-1,5.4-1.4,8.6-1.4s6,.5,8.6,1.4c2.6,1,4.8,2.3,6.6,3.9,1.8,1.6,3.3,3.5,4.3,5.7,1,2.2,1.6,4.5,1.7,7ZM351,56.1c.2,2,.9,3.5,2.1,4.6,1.3,1.1,2.9,1.7,5,1.7s3.7-.6,5-1.7c1.3-1.1,2-2.7,2.1-4.6.1-.8.2-1.7.2-2.6s0-1.9-.2-2.6c-.2-2-.9-3.5-2.1-4.6-1.3-1.1-2.9-1.7-5-1.7s-3.7.6-5,1.7c-1.3,1.1-2,2.7-2.1,4.6-.1.8-.2,1.7-.2,2.6s0,1.9.2,2.6ZM360,16.5c.6-.7,1-1.1,1.4-1.2s.9-.2,1.4-.2h10.3c1,0,1.5.5,1.5,1.6s-.1.7-.4.9l-10.5,8.6c-.4.4-.9.7-1.3.9-.5.3-1.1.4-1.9.4h-6.8c-.8,0-1.2-.4-1.2-1.2s.1-.7.4-1l7.1-8.7Z"/>
      <path class="st1" d="M427.9,71.5c0,.6-.2,1.1-.6,1.5-.4.4-.9.6-1.5.6h-9.8c-.6,0-1.1-.2-1.5-.6s-.6-.9-.6-1.5v-19.6c0-2.2-.5-4-1.6-5.4-1.1-1.3-2.8-2-5.1-2s-4,.7-5.1,2c-1.1,1.3-1.6,3.1-1.6,5.4v19.6c0,.6-.2,1.1-.6,1.5-.4.4-.9.6-1.5.6h-9.8c-.6,0-1.1-.2-1.5-.6-.4-.4-.6-.9-.6-1.5v-36.2c0-.6.2-1.1.6-1.5s.9-.6,1.5-.6h9.4c.6,0,1.1.2,1.5.6.4.4.6.9.6,1.5v1.8c.4-.5.9-1.1,1.6-1.6.6-.6,1.4-1.1,2.3-1.5.9-.4,1.9-.8,3.1-1.1,1.2-.3,2.5-.4,4.1-.4,2.5,0,4.8.3,6.8,1,2.1.7,3.8,1.8,5.3,3.2,1.5,1.4,2.6,3.3,3.5,5.5.8,2.2,1.2,4.9,1.2,7.9v21.3Z"/>
    </g>
    <path class="st0" d="M26.3,53.9c-.1.8-.2,1.4-.2,1.9,0,.5,0,1,0,1.5,0,4.3,1.2,7.6,3.6,10.1,2.4,2.4,5.8,3.6,10.1,3.6s10.3-1.6,15.3-4.8c5-3.2,7.7-4.8,8.3-4.8.9,0,1.7.4,2.4,1.1.7.7,1,1.6,1,2.5,0,3.4-3.6,7-10.8,10.7-7.2,3.7-15.1,5.5-23.8,5.5s-15.6-2.3-20.6-7c-5-4.7-7.5-11.1-7.5-19.3s4-19.6,12-27c8-7.4,17.5-11.1,28.5-11.1s13.8,1.3,18.1,4c4.3,2.7,6.5,6.3,6.5,11.1s-3.7,10.9-11,14.7c-7.3,3.8-18,6.2-31.9,7.3ZM26.5,45.5c6.8-.7,12.4-2.5,16.8-5.4,4.5-2.9,6.7-6.1,6.7-9.5s-.6-3.2-1.7-4.2c-1.1-1-2.7-1.5-4.8-1.5-3.6,0-7,1.8-10.1,5.5-3.1,3.7-5.4,8.7-7,15.1Z"/>
  </g>
</svg>